<!DOCTYPE svg PUBLIC "-//W3C//DTD SVG 1.1//EN" "http://www.w3.org/Graphics/SVG/1.1/DTD/svg11.dtd">
<!-- Uploaded to: SVG Repo, www.svgrepo.com, Transformed by: SVG Repo Mixer Tools -->
<svg width="800px" height="800px" viewBox="0 0 24 24" fill="none" xmlns="http://www.w3.org/2000/svg" stroke="#ffffff">
<g id="SVGRepo_bgCarrier" stroke-width="0"/>
<g id="SVGRepo_tracerCarrier" stroke-linecap="round" stroke-linejoin="round"/>
<g id="SVGRepo_iconCarrier">
<path d="M12 22C17.5228 22 22 17.5228 22 12C22 6.47715 17.5228 2 12 2C6.47715 2 2 6.47715 2 12C2 17.5228 6.47715 22 12 22Z" stroke="#ffffff" stroke-linecap="round" stroke-linejoin="round" stroke-width="0.9600000000000002"/>
<path d="M12 16C9.79086 16 8 14.2091 8 12C8 9.79086 9.79086 8 12 8M12 16V18M12 16C13.1046 16 14.1046 15.5523 14.8284 14.8284M12 8V6M12 8C13.1046 8 14.1046 8.44772 14.8284 9.17157" stroke="#ffffff" stroke-linecap="round" stroke-linejoin="round" stroke-width="0.9600000000000002"/>
</g>
</svg>